<svg xmlns="http://www.w3.org/2000/svg" viewBox="0 0 100 100">
  <rect x="10" y="10" width="80" height="80" rx="8" fill="#8B7355"/>
  <rect x="15" y="15" width="70" height="70" rx="4" fill="#5D4E37"/>
  <rect x="20" y="20" width="26" height="18" rx="2" fill="#FFE4B5"/>
  <rect x="54" y="20" width="26" height="18" rx="2" fill="#FFE4B5"/>
  <rect x="20" y="42" width="26" height="18" rx="2" fill="#FFE4B5"/>
  <rect x="54" y="42" width="26" height="18" rx="2" fill="#FFE4B5"/>
  <rect x="20" y="64" width="60" height="18" rx="2" fill="#FFE4B5"/>
  <!-- Drawer pulls -->
  <rect x="28" y="27" width="10" height="4" rx="1" fill="#C0C0C0"/>
  <rect x="62" y="27" width="10" height="4" rx="1" fill="#C0C0C0"/>
  <rect x="28" y="49" width="10" height="4" rx="1" fill="#C0C0C0"/>
  <rect x="62" y="49" width="10" height="4" rx="1" fill="#C0C0C0"/>
  <rect x="45" y="71" width="10" height="4" rx="1" fill="#C0C0C0"/>
</svg>
